<svg xmlns="http://www.w3.org/2000/svg" width="2880" height="1800" viewBox="-1440 -900 2880 1800"><defs><pattern id="bg" width="36" height="36" patternTransform="rotate(22.5)" patternUnits="userSpaceOnUse"><path fill="none" stroke="#E0DCE0" stroke-width="1" d="M 6 0 l 4 4 l 16 0 l 4 -4 l 6 6 l -4 4 l 0 16 l 4 4 l -6 6 l -4 -4 l -16 0 l -4 4 l -6 -6 l 4 -4 l 0 -16 l -4 -4 z"/></pattern><pattern id="bg-large" width="360" height="360" patternTransform="rotate(-22.5)" patternUnits="userSpaceOnUse"><path fill="none" stroke="#C1BCC2" stroke-width="2" d="M 60 0 l 40 40 l 160 0 l 40 -40 l 60 60 l -40 40 l 0 160 l 40 40 l -60 60 l -40 -40 l -160 0 l -40 40 l -60 -60 l 40 -40 l 0 -160 l -40 -40 z"/></pattern><radialGradient id="accent-bg"><stop offset="25%" stop-color="#FFFCFF"/><stop offset="100%" stop-color="#FFFCFF" stop-opacity="0"/></radialGradient><linearGradient id="fill-0" x1="0" x2="1" y1="0" y2="1"><stop offset="25%" stop-color="#F03E4D" stop-opacity="0"/><stop offset="90%" stop-color="#F03E4D"/></linearGradient><linearGradient id="fill-1" x1="0" x2="1" y1="0" y2="1"><stop offset="25%" stop-color="#F37735" stop-opacity="0"/><stop offset="90%" stop-color="#F37735"/></linearGradient><linearGradient id="fill-2" x1="0" x2="1" y1="0" y2="1"><stop offset="25%" stop-color="#EEBA21" stop-opacity="0"/><stop offset="90%" stop-color="#EEBA21"/></linearGradient><linearGradient id="fill-3" x1="0" x2="1" y1="0" y2="1"><stop offset="25%" stop-color="#97BD2D" stop-opacity="0"/><stop offset="90%" stop-color="#97BD2D"/></linearGradient><linearGradient id="fill-4" x1="0" x2="1" y1="0" y2="1"><stop offset="25%" stop-color="#1FC598" stop-opacity="0"/><stop offset="90%" stop-color="#1FC598"/></linearGradient><linearGradient id="fill-5" x1="0" x2="1" y1="0" y2="1"><stop offset="25%" stop-color="#53A6E1" stop-opacity="0"/><stop offset="90%" stop-color="#53A6E1"/></linearGradient><linearGradient id="fill-6" x1="0" x2="1" y1="0" y2="1"><stop offset="25%" stop-color="#BF65F0" stop-opacity="0"/><stop offset="90%" stop-color="#BF65F0"/></linearGradient><linearGradient id="fill-7" x1="0" x2="1" y1="0" y2="1"><stop offset="25%" stop-color="#EE4EB8" stop-opacity="0"/><stop offset="90%" stop-color="#EE4EB8"/></linearGradient></defs><rect width="2880" height="1800" x="-1440" y="-900" fill="#FFFCFF"/><rect width="2880" height="1800" x="-1440" y="-900" fill="url(#bg)"/><rect width="2880" height="1800" x="-1440" y="-900" fill="url(#bg-large)"/><circle r="1200" fill="url(#accent-bg)"/><path fill="url(#fill-0)" stroke="#F03E4D" stroke-width="0" d="M 0 -300 L 212.13 -212.13 L 212.13 212.13 Z" transform="rotate(0)"/><path fill="url(#fill-1)" stroke="#F37735" stroke-width="0" d="M 0 -300 L 212.13 -212.13 L 212.13 212.13 Z" transform="rotate(-45)"/><path fill="url(#fill-2)" stroke="#EEBA21" stroke-width="0" d="M 0 -300 L 212.13 -212.13 L 212.13 212.13 Z" transform="rotate(-90)"/><path fill="url(#fill-3)" stroke="#97BD2D" stroke-width="0" d="M 0 -300 L 212.13 -212.13 L 212.13 212.13 Z" transform="rotate(-135)"/><path fill="url(#fill-4)" stroke="#1FC598" stroke-width="0" d="M 0 -300 L 212.13 -212.13 L 212.13 212.13 Z" transform="rotate(-180)"/><path fill="url(#fill-5)" stroke="#53A6E1" stroke-width="0" d="M 0 -300 L 212.13 -212.13 L 212.13 212.13 Z" transform="rotate(-225)"/><path fill="url(#fill-6)" stroke="#BF65F0" stroke-width="0" d="M 0 -300 L 212.13 -212.13 L 212.13 212.13 Z" transform="rotate(-270)"/><path fill="url(#fill-7)" stroke="#EE4EB8" stroke-width="0" d="M 0 -300 L 212.13 -212.13 L 212.13 212.13 Z" transform="rotate(-315)"/></svg>