<svg xmlns="http://www.w3.org/2000/svg" width="2880" height="1800" viewBox="0 0 2880 1800"><style>.triangle--zero{fill:#282629}.triangle--seven{fill:#fffcff;opacity:.5}</style><defs><filter id="texture" width="100%" height="100%" x="0" y="0" filterUnits="objectBoundingBox"><feTurbulence baseFrequency=".4" numOctaves="3" result="turbulence" type="fractalNoise"/><feColorMatrix in="turbulence" result="desaturatedTurbulence" type="saturate" values=".1"/><feBlend in="SourceGraphic" in2="desaturatedTurbulence" mode="multiply" result="multiplied"/><feBlend in="multiplied" in2="desaturatedTurbulence" mode="screen"/></filter><pattern id="triangles" width="24" height="48" patternUnits="userSpaceOnUse"><path d="M0,0 L24,0 L12,24 Z" class="triangle--zero"/><path d="M0,24 L12,24 L0,48 Z" class="triangle--zero"/><path d="M12,24 L24,24 L 24,48 Z" class="triangle--zero"/><path d="M0,0 L12,24 L0,24 Z" class="triangle--seven"/><path d="M24,0 L24,24 L12,24 Z" class="triangle--seven"/><path d="M12,24 L24,48 L0,48 Z" class="triangle--seven"/></pattern><linearGradient id="warm-linear" x1="0" x2="100%" y1="50%" y2="100%"><stop offset="0%" stop-color="#F553BF"/><stop offset="100%" stop-color="#FFD24A"/></linearGradient><linearGradient id="cool-linear" x1="100%" x2="0" y1="0" y2="100%"><stop offset="0%" stop-color="#26C99E"/><stop offset="45%" stop-color="#26C99E" stop-opacity="0"/></linearGradient><linearGradient id="accent-linear" x1="0" x2="100%" y1="100%" y2="0"><stop offset="0%" stop-color="#FF4050"/><stop offset="25%" stop-color="#FF4050" stop-opacity="0"/></linearGradient></defs><rect width="100%" height="100%" x="0" y="0" fill="url(#warm-linear)"/><rect width="100%" height="100%" x="0" y="0" fill="url(#cool-linear)"/><rect width="100%" height="100%" x="0" y="0" fill="url(#accent-linear)"/><rect width="100%" height="100%" x="0" y="0" fill="url(#triangles)" filter="url(#texture)" opacity=".3"/></svg>